<svg xmlns="http://www.w3.org/2000/svg" viewBox="0 0 64 64">
  <rect width="64" height="64" rx="12" fill="#F5F0E8"/>
  <rect x="10" y="11" width="44" height="4" rx="2" fill="#2C2416"/>
  <path d="M16 15C16 15 17.5 20 20 23C22.5 26 24 29 24 33C24 37 22.5 40 20 43C17.5 46 16 51 16 51" stroke="#B89A6A" stroke-width="3" stroke-linecap="round"/>
  <path d="M26 15C26 15 27.5 20 30 23C32.5 26 34 29 34 33C34 37 32.5 40 30 43C27.5 46 26 51 26 51" stroke="#D4B896" stroke-width="3" stroke-linecap="round"/>
  <path d="M36 15C36 15 37.5 20 40 23C42.5 26 44 29 44 33C44 37 42.5 40 40 43C37.5 46 36 51 36 51" stroke="#B89A6A" stroke-width="3" stroke-linecap="round"/>
  <path d="M22 37C22 34.7909 23.7909 33 26 33H44C46.2091 33 48 34.7909 48 37V42C48 44.2091 46.2091 46 44 46H26C23.7909 46 22 44.2091 22 42V37Z" fill="#F5F0E8" stroke="#2C2416" stroke-width="2"/>
  <path d="M24 46V51" stroke="#2C2416" stroke-width="2" stroke-linecap="round"/>
  <path d="M46 46V51" stroke="#2C2416" stroke-width="2" stroke-linecap="round"/>
  <path d="M22 40H48" stroke="#B89A6A" stroke-width="2"/>
  <path d="M22 37L18 40V46" stroke="#2C2416" stroke-width="2" stroke-linecap="round" stroke-linejoin="round"/>
</svg>